<svg width="202" height="48" viewBox="0 0 202 48" fill="none" xmlns="http://www.w3.org/2000/svg">
<g clipPath="url(#clip0)">
<path d="M0 4.73776V38.6832H9.99064C20.8895 38.6832 27.8905 32.3255 27.8905 21.7294C27.8905 11.0954 20.8895 4.73776 9.99064 4.73776H0ZM9.99064 11.928C15.5536 11.928 19.2622 15.2204 19.2622 21.7294C19.2622 28.2006 15.5536 31.5308 9.99064 31.5308H8.28769V11.928H9.99064ZM53.4348 28.0871C53.4726 27.4816 53.4726 26.9518 53.4726 26.4598C53.4726 17.7937 49.0828 12.6092 40.9843 12.6092C33.4913 12.6092 28.4582 18.5506 28.4582 26.0436C28.4582 33.5365 33.6049 39.3266 42.0061 39.3266C48.5908 39.3266 52.0724 35.2016 52.8293 33.6879L47.4934 29.563C47.0014 30.3198 45.1849 32.2877 42.1575 32.2877C39.13 32.2877 36.9351 30.3577 36.7459 28.0871H53.4348ZM41.1357 19.1561C43.6333 19.1561 45.1471 20.8969 45.2606 22.9404H37.0108C37.2 21.1239 38.4488 19.1561 41.1357 19.1561ZM67.9666 32.212C64.2579 32.212 61.7225 29.6765 61.7225 25.93C61.7225 22.562 63.8417 19.8751 67.7017 19.8751C69.5939 19.8751 71.3725 20.5941 72.7727 21.7673L74.9676 14.9176C73.189 13.6688 70.6913 12.6092 67.3989 12.6092C59.5275 12.6092 53.624 18.1721 53.624 26.0057C53.624 33.8014 59.3383 39.3266 67.4368 39.3266C70.6535 39.3266 73.2268 38.2291 74.9298 37.056L72.7727 30.3955C71.6752 31.3416 69.8588 32.212 67.9666 32.212ZM75.0055 30.774C75.0055 36.3369 79.471 39.3266 84.4663 39.3266C87.0775 39.3266 88.9318 38.6075 90.2185 37.283L90.6726 38.6832H97.9007V22.9404C97.9007 17.1125 95.6679 12.6092 86.8883 12.6092C82.6498 12.6092 79.2061 13.9715 76.5192 15.7502L79.5088 21.1996C81.5145 20.2157 83.6716 19.5723 85.9043 19.5723C88.5534 19.5723 89.8022 20.7833 89.8022 22.3349V23.281C88.894 22.8647 87.1153 22.3349 84.8826 22.3349C78.8655 22.3349 75.0055 25.703 75.0055 30.774ZM83.1039 30.5091C83.1039 28.844 84.542 27.7843 86.5098 27.7843C88.4398 27.7843 89.9536 28.7683 89.9536 30.5091C89.9536 32.212 88.4777 33.1203 86.5477 33.1203C84.6555 33.1203 83.1039 32.212 83.1039 30.5091ZM117.958 37.3965C117.958 40.4997 114.968 41.1809 111.941 41.1809C108.497 41.1809 105.659 39.9699 104.902 39.6293L102.555 45.8356C104.826 47.0088 108.345 47.9927 111.941 47.9927C119.509 47.9927 126.056 45.0409 126.056 35.6558V13.2147H118.487V15.2204C117.768 14.3878 115.346 12.6092 111.6 12.6092C104.296 12.6092 99.1495 18.1343 99.1495 25.93C99.1495 33.8393 103.804 39.3266 111.184 39.3266C115.044 39.3266 117.428 37.3965 117.958 36.7532V37.3965ZM118.223 25.8922C118.223 29.9036 115.914 32.212 112.735 32.212C109.443 32.212 107.248 29.6387 107.248 25.8922C107.248 22.1078 109.443 19.7237 112.697 19.7237C116.179 19.7237 118.223 22.4863 118.223 25.8922ZM193.001 38.6832H201.099V24.5677C201.099 19.3831 200.343 12.6092 192.358 12.6092C189.179 12.6092 186.946 14.35 185.962 15.8637V13.2147H178.053V38.6832H186.151V23.508C186.151 21.4645 187.438 19.8751 189.671 19.8751C191.601 19.8751 193.001 21.1239 193.001 23.508V38.6832Z" fill="#2D2F48"/>
<path fillRule="evenodd" clipRule="evenodd" d="M145.508 11.3225C146.605 11.3225 147.702 11.436 148.8 11.6631L147.475 15.296C146.87 15.2203 146.227 15.1825 145.583 15.1825C143.956 15.1825 142.404 15.4474 140.928 15.9772L140.323 12.1172C141.95 11.5874 143.691 11.3225 145.508 11.3225ZM143.464 35.4665C142.896 34.4826 142.442 33.4608 142.102 32.439L145.924 31.7579C146.151 32.3255 146.416 32.8932 146.756 33.423C147.551 34.861 148.573 36.072 149.746 37.0559L146.756 39.5157C145.47 38.3804 144.372 37.0181 143.464 35.4665ZM174.609 29.071C174.495 29.9035 174.344 30.6983 174.155 31.493L172.49 30.7739C172.679 30.0928 172.868 29.4116 172.982 28.7304L174.609 29.071ZM172.338 35.6936C171.846 36.564 171.241 37.3587 170.56 38.1155L168.97 36.4126C169.576 35.8449 170.106 35.2016 170.598 34.5204L172.338 35.6936ZM167.646 40.7267C167.23 41.0295 166.813 41.3322 166.359 41.5971C165.564 42.0513 164.732 42.4297 163.899 42.7324L163.142 39.8942C164.126 39.5914 165.148 39.1752 166.094 38.6075C166.246 38.5318 166.359 38.4561 166.511 38.3804L167.646 40.7267ZM160.872 43.565C159.131 43.8677 157.352 43.9056 155.612 43.6407L156.709 40.3105C158.109 40.5754 159.585 40.5754 161.061 40.3861L160.872 43.565ZM153.72 43.2622L155.158 39.9699C153.53 39.5157 151.979 38.7589 150.616 37.7371L148.005 40.5375C149.708 41.8242 151.676 42.7324 153.72 43.2622ZM135.441 41.4836C134.798 40.9916 134.155 40.4618 133.587 39.8563L135.025 38.7967C135.517 39.3265 136.009 39.8185 136.576 40.2726L135.441 41.4836ZM130.824 36.2234C130.37 35.353 129.954 34.4069 129.613 33.4608L131.884 32.931C132.111 33.7257 132.376 34.5204 132.716 35.2773L130.824 36.2234ZM128.819 29.6386C128.743 29.1088 128.743 28.6169 128.743 28.0871C128.743 27.141 128.819 26.2706 128.97 25.3623L131.808 26.1192C131.543 27.141 131.43 28.2384 131.43 29.3359V29.79L128.819 29.6386ZM129.765 22.3349C130.37 20.6698 131.241 19.1182 132.3 17.7558L134.646 20.3292C133.738 21.4645 132.981 22.7133 132.414 24.1135L129.765 22.3349ZM133.587 16.28L135.706 19.1939C136.917 18.0207 138.355 17.0368 139.907 16.3556L138.809 12.7227C136.841 13.5552 135.063 14.7662 133.587 16.28ZM165.375 25.1353C164.808 26.1192 164.164 27.0275 163.445 27.8222L160.948 24.8704C161.326 24.3784 161.667 23.8486 161.969 23.3188C162.802 21.8808 163.332 20.4049 163.634 18.8911L167.267 20.2535C166.889 21.9564 166.283 23.5837 165.375 25.1353ZM144.297 1.36968C145.053 1.02909 145.81 0.764191 146.605 0.574974L146.794 2.35361C146.113 2.50498 145.432 2.6942 144.788 2.9591L144.297 1.36968ZM151.146 0.00732422C152.13 0.00732422 153.152 0.120854 154.136 0.310071L153.455 2.54283C152.66 2.31577 151.827 2.20224 150.995 2.12655L151.146 0.00732422ZM157.844 1.52106C158.336 1.74812 158.791 1.97518 159.245 2.24008C160.039 2.6942 160.796 3.22401 161.477 3.79166L159.396 5.87304C158.639 5.15402 157.769 4.51068 156.785 3.94303C156.671 3.86734 156.52 3.79166 156.406 3.71597L157.844 1.52106ZM163.71 5.98657C164.845 7.34893 165.754 8.9005 166.397 10.4899L162.991 11.2468C162.461 9.88443 161.742 8.59776 160.834 7.42461L163.71 5.98657ZM167.04 12.3442C167.57 14.3878 167.759 16.5449 167.494 18.6641L163.786 17.7937C163.975 16.0907 163.862 14.3878 163.445 12.7605L167.04 12.3442Z" fill="#B8D344"/>
<path fillRule="evenodd" clipRule="evenodd" d="M137.523 22.789C138.09 21.8429 138.734 20.9347 139.453 20.1021L141.95 23.0539C141.572 23.5458 141.231 24.0757 140.891 24.6433C140.096 26.0435 139.528 27.5572 139.263 29.071L135.63 27.6708C136.009 26.0057 136.614 24.3406 137.523 22.789ZM159.434 12.4956C160.002 13.4795 160.418 14.4634 160.796 15.5231L156.974 16.2042C156.747 15.6366 156.444 15.0689 156.141 14.5013C155.309 13.1011 154.287 11.8901 153.114 10.8683L156.141 8.44636C157.39 9.58166 158.526 10.944 159.434 12.4956ZM128.289 18.8533C128.365 18.0586 128.516 17.2639 128.743 16.4691L130.408 17.1882C130.181 17.8315 130.03 18.5127 129.916 19.2317L128.289 18.8533ZM130.559 12.2307C131.051 11.3981 131.657 10.5656 132.3 9.80872L133.89 11.5117C133.322 12.1172 132.754 12.7605 132.3 13.4038L130.559 12.2307ZM135.214 7.19753C135.63 6.89478 136.085 6.62988 136.539 6.36498C137.333 5.91086 138.128 5.49458 138.961 5.19183L139.755 8.03008C138.734 8.33283 137.75 8.74911 136.766 9.31676C136.652 9.39244 136.501 9.46813 136.387 9.54382L135.214 7.19753ZM142.026 4.35928C143.767 4.05653 145.545 4.01869 147.286 4.28359L146.189 7.61381C144.751 7.38675 143.275 7.3489 141.837 7.57596L142.026 4.35928ZM149.178 4.66203L147.74 7.9544C149.368 8.40852 150.881 9.16538 152.281 10.1872L154.893 7.38675C153.152 6.13792 151.222 5.19183 149.178 4.66203ZM157.39 36.6018C156.255 36.6018 155.158 36.4883 154.098 36.299L155.422 32.6282C156.028 32.7039 156.671 32.7796 157.277 32.7796C158.942 32.7796 160.493 32.4769 161.969 31.9849L162.537 35.8071C160.91 36.3369 159.207 36.6018 157.39 36.6018ZM167.457 6.47851C168.1 6.97047 168.705 7.50028 169.273 8.06793L167.835 9.16538C167.381 8.63558 166.851 8.14361 166.321 7.68949L167.457 6.47851ZM172.036 11.7387C172.528 12.6091 172.944 13.5174 173.285 14.4634L171.014 14.9933C170.787 14.1985 170.484 13.4038 170.144 12.647L172.036 11.7387ZM174.079 18.3235C174.117 18.8154 174.155 19.3452 174.155 19.875C174.155 20.7833 174.079 21.6915 173.928 22.5619L171.09 21.805C171.317 20.7833 171.468 19.7237 171.468 18.5884C171.468 18.437 171.468 18.2856 171.43 18.1342L174.079 18.3235ZM173.133 25.6272C172.528 27.2923 171.657 28.8439 170.598 30.2063L168.214 27.5951C169.16 26.4598 169.916 25.2109 170.446 23.8486L173.133 25.6272ZM169.273 31.6443L167.154 28.7682C165.943 29.9414 164.543 30.8874 162.953 31.5686L164.089 35.2394C166.056 34.369 167.797 33.158 169.273 31.6443ZM158.601 46.5924C157.844 46.8952 157.088 47.1601 156.293 47.3871L156.066 45.5707C156.747 45.4571 157.428 45.2301 158.109 45.003L158.601 46.5924ZM151.752 47.9169C150.73 47.9169 149.746 47.8034 148.762 47.6142L149.443 45.3814C150.238 45.6085 151.07 45.7599 151.865 45.8356L151.752 47.9169ZM145.016 46.4032C144.561 46.1761 144.107 45.9491 143.653 45.6842C142.858 45.2301 142.102 44.7003 141.42 44.1326L143.464 42.0512C144.259 42.7702 145.129 43.4514 146.075 43.9812C146.227 44.0569 146.34 44.1326 146.491 44.2083L145.016 46.4032ZM139.188 41.9377C138.015 40.5753 137.144 39.0616 136.463 37.4343L139.907 36.6775C140.399 38.0398 141.118 39.3265 142.064 40.4996L139.188 41.9377ZM135.857 35.58C135.29 33.5365 135.138 31.4173 135.366 29.2602L139.074 30.1306C138.885 31.8335 139.036 33.5365 139.453 35.2016L135.857 35.58Z" fill="#34A853"/>
</g>
<defs>
<clipPath id="clip0">
<rect width="201.099" height="48" fill="white"/>
</clipPath>
</defs>
</svg>
